<svg width="130" height="33" viewBox="0 0 130 33" fill="none" xmlns="http://www.w3.org/2000/svg">
<path d="M13.74 6.14C13.74 5.84 13.71 5.6 13.68 5.39C13.62 5.21 13.56 5.03 13.5 4.85C13.41 4.67 13.32 4.49 13.2 4.31C13.08 4.13 12.93 3.92 12.81 3.68C12.24 2.78 11.52 2.09 10.68 1.64C9.84 1.19 8.88 0.949998 7.8 0.949998C7.05 0.949998 6.27 1.1 5.46 1.37C4.62 1.67 3.87 2.03 3.18 2.48C2.49 2.93 1.92 3.44 1.47 3.98C1.02 4.55 0.81 5.12 0.81 5.66C0.81 5.81 0.84 6.02 0.9 6.29C0.96 6.59 1.08 6.86 1.2 7.1C1.32 7.37 1.44 7.61 1.62 7.79C1.77 8 1.95 8.09 2.13 8.09C2.22 8.09 2.34 8.06 2.52 7.97C2.7 7.88 2.88 7.76 3.06 7.64C3.24 7.52 3.42 7.4 3.6 7.28C3.75 7.16 3.87 7.04 3.93 6.95C4.02 6.8 4.11 6.62 4.2 6.41C4.29 6.2 4.38 5.99 4.44 5.81C4.56 5.33 4.74 4.94 4.92 4.58C5.1 4.25 5.34 3.98 5.64 3.74C5.94 3.53 6.27 3.38 6.69 3.26C7.11 3.14 7.59 3.08 8.19 3.08C8.55 3.08 8.94 3.11 9.3 3.17C9.66 3.23 10.02 3.35 10.32 3.53C10.62 3.71 10.86 3.92 11.04 4.22C11.22 4.52 11.34 4.91 11.34 5.39C11.34 6.02 11.07 6.62 10.59 7.19C10.11 7.79 9.51 8.3 8.82 8.72C8.1 9.17 7.38 9.53 6.6 9.77C5.82 10.04 5.19 10.16 4.65 10.16L4.23 10.13C4.14 10.13 4.08 10.22 4.02 10.4C3.96 10.58 3.93 10.76 3.9 10.97C3.84 11.18 3.81 11.39 3.81 11.57C3.78 11.78 3.78 11.9 3.78 11.96V12.05C3.78 12.23 3.78 12.47 3.81 12.71C3.81 12.98 3.9 13.16 4.02 13.28C4.17 13.22 4.38 13.19 4.68 13.13C4.98 13.1 5.37 13.07 5.85 13.07C6.39 13.07 6.99 13.13 7.62 13.22C8.22 13.34 8.79 13.49 9.33 13.73C9.84 13.97 10.26 14.27 10.62 14.63C10.95 15.02 11.13 15.47 11.13 16.01C11.13 16.52 10.98 16.94 10.71 17.27C10.41 17.6 10.08 17.87 9.66 18.05C9.24 18.23 8.79 18.38 8.31 18.44C7.83 18.5 7.41 18.53 7.02 18.53C6.84 18.53 6.6 18.53 6.36 18.5C6.09 18.5 5.82 18.47 5.55 18.41C5.25 18.35 4.98 18.29 4.74 18.23C4.5 18.17 4.29 18.08 4.17 17.96C3.9 17.78 3.75 17.6 3.72 17.45C3.69 17.33 3.6 17.15 3.48 16.91C3.24 16.52 2.97 16.19 2.67 15.95C2.37 15.71 1.92 15.56 1.29 15.56C1.02 15.56 0.78 15.68 0.54 15.86C0.3 16.04 0.21 16.31 0.21 16.67C0.21 17.15 0.39 17.6 0.81 17.96C1.23 18.35 1.71 18.68 2.31 18.95C2.88 19.25 3.48 19.46 4.11 19.61C4.71 19.79 5.25 19.88 5.7 19.91C5.97 19.94 6.24 19.97 6.48 19.97C6.72 19.97 6.96 19.97 7.2 19.97C7.95 19.97 8.7 19.91 9.48 19.79C10.26 19.67 10.95 19.43 11.58 19.07C12.18 18.74 12.69 18.26 13.08 17.66C13.44 17.06 13.65 16.25 13.65 15.26C13.65 14.72 13.53 14.24 13.29 13.82C13.05 13.4 12.78 13.01 12.42 12.71C12.06 12.41 11.64 12.14 11.19 11.9C10.71 11.69 10.26 11.51 9.78 11.36C10.26 11.09 10.74 10.79 11.22 10.43C11.7 10.07 12.12 9.68 12.48 9.26C12.84 8.84 13.14 8.36 13.38 7.82C13.62 7.31 13.74 6.74 13.74 6.14ZM28.4904 12.92V10.94C28.4904 10.46 28.4304 9.86 28.3104 9.2C28.1904 8.54 28.0404 7.85 27.8604 7.16C27.6504 6.47 27.4104 5.81 27.1404 5.21C26.8404 4.61 26.5404 4.1 26.2104 3.71C25.9104 3.41 25.6104 3.14 25.3404 2.96C25.0404 2.78 24.7704 2.63 24.4704 2.51C24.1704 2.42 23.8404 2.33 23.5104 2.27C23.1804 2.21 22.8204 2.12 22.4004 2.03C22.2504 2 22.0704 1.97 21.8604 1.91L21.2004 1.76C20.9604 1.7 20.7504 1.67 20.5704 1.61C20.3604 1.58 20.2104 1.55 20.0904 1.55C19.3704 1.55 18.7704 1.73 18.2304 2.06C17.6904 2.42 17.2404 2.87 16.8804 3.41C16.4904 3.95 16.1904 4.58 15.9504 5.27C15.7104 5.99 15.5004 6.68 15.3504 7.4C15.2004 8.12 15.1104 8.84 15.0504 9.5C14.9904 10.19 14.9604 10.79 14.9604 11.3C14.9604 11.9 14.9904 12.56 15.0504 13.22C15.1104 13.88 15.2304 14.54 15.4104 15.2C15.5904 15.86 15.8304 16.49 16.1304 17.09C16.4304 17.69 16.7904 18.17 17.2704 18.59C17.6604 18.95 18.0804 19.22 18.5304 19.37C18.9804 19.55 19.4604 19.7 20.0004 19.82C20.2704 19.91 20.6004 20 20.9904 20.06C21.3504 20.15 21.6804 20.18 21.9804 20.18H23.6304C23.8104 20.18 24.0804 20.15 24.4104 20.03C24.7104 19.91 24.9804 19.82 25.1604 19.7C25.7004 19.46 26.2104 19.1 26.6304 18.56C27.0504 18.05 27.3804 17.48 27.6504 16.82C27.9204 16.19 28.1304 15.53 28.2804 14.84C28.4004 14.15 28.4904 13.52 28.4904 12.92ZM26.2404 11.75C26.2404 12.23 26.2104 12.68 26.1804 13.1C26.1504 13.55 26.0904 14 26.0304 14.45C25.9704 14.84 25.8504 15.26 25.6704 15.74C25.4904 16.22 25.2504 16.64 24.9804 17.03C24.6804 17.45 24.3504 17.78 23.9904 18.05C23.6004 18.32 23.1804 18.44 22.7304 18.44H21.4704C20.6604 18.44 20.0004 18.17 19.5204 17.63C19.0104 17.09 18.6204 16.4 18.3504 15.62C18.0504 14.84 17.8704 14.03 17.7804 13.19C17.6604 12.35 17.6304 11.6 17.6304 11C17.6304 10.31 17.6604 9.53 17.7504 8.69C17.8404 7.85 18.0204 7.07 18.3204 6.35C18.5904 5.63 19.0104 5 19.5504 4.49C20.0904 4.01 20.8404 3.74 21.7704 3.74C22.2204 3.74 22.7004 3.8 23.1804 3.92C23.6604 4.04 24.0804 4.25 24.4404 4.58C24.8004 4.94 25.0704 5.42 25.3104 6.02C25.5504 6.62 25.7304 7.28 25.8804 7.97C26.0004 8.66 26.0904 9.35 26.1504 10.01C26.2104 10.7 26.2404 11.27 26.2404 11.75ZM43.4904 12.92V10.94C43.4904 10.46 43.4304 9.86 43.3104 9.2C43.1904 8.54 43.0404 7.85 42.8604 7.16C42.6504 6.47 42.4104 5.81 42.1404 5.21C41.8404 4.61 41.5404 4.1 41.2104 3.71C40.9104 3.41 40.6104 3.14 40.3404 2.96C40.0404 2.78 39.7704 2.63 39.4704 2.51C39.1704 2.42 38.8404 2.33 38.5104 2.27C38.1804 2.21 37.8204 2.12 37.4004 2.03C37.2504 2 37.0704 1.97 36.8604 1.91L36.2004 1.76C35.9604 1.7 35.7504 1.67 35.5704 1.61C35.3604 1.58 35.2104 1.55 35.0904 1.55C34.3704 1.55 33.7704 1.73 33.2304 2.06C32.6904 2.42 32.2404 2.87 31.8804 3.41C31.4904 3.95 31.1904 4.58 30.9504 5.27C30.7104 5.99 30.5004 6.68 30.3504 7.4C30.2004 8.12 30.1104 8.84 30.0504 9.5C29.9904 10.19 29.9604 10.79 29.9604 11.3C29.9604 11.9 29.9904 12.56 30.0504 13.22C30.1104 13.88 30.2304 14.54 30.4104 15.2C30.5904 15.86 30.8304 16.49 31.1304 17.09C31.4304 17.69 31.7904 18.17 32.2704 18.59C32.6604 18.95 33.0804 19.22 33.5304 19.37C33.9804 19.55 34.4604 19.7 35.0004 19.82C35.2704 19.91 35.6004 20 35.9904 20.06C36.3504 20.15 36.6804 20.18 36.9804 20.18H38.6304C38.8104 20.18 39.0804 20.15 39.4104 20.03C39.7104 19.91 39.9804 19.82 40.1604 19.7C40.7004 19.46 41.2104 19.1 41.6304 18.56C42.0504 18.05 42.3804 17.48 42.6504 16.82C42.9204 16.19 43.1304 15.53 43.2804 14.84C43.4004 14.15 43.4904 13.52 43.4904 12.92ZM41.2404 11.75C41.2404 12.23 41.2104 12.68 41.1804 13.1C41.1504 13.55 41.0904 14 41.0304 14.45C40.9704 14.84 40.8504 15.26 40.6704 15.74C40.4904 16.22 40.2504 16.64 39.9804 17.03C39.6804 17.45 39.3504 17.78 38.9904 18.05C38.6004 18.32 38.1804 18.44 37.7304 18.44H36.4704C35.6604 18.44 35.0004 18.17 34.5204 17.63C34.0104 17.09 33.6204 16.4 33.3504 15.62C33.0504 14.84 32.8704 14.03 32.7804 13.19C32.6604 12.35 32.6304 11.6 32.6304 11C32.6304 10.31 32.6604 9.53 32.7504 8.69C32.8404 7.85 33.0204 7.07 33.3204 6.35C33.5904 5.63 34.0104 5 34.5504 4.49C35.0904 4.01 35.8404 3.74 36.7704 3.74C37.2204 3.74 37.7004 3.8 38.1804 3.92C38.6604 4.04 39.0804 4.25 39.4404 4.58C39.8004 4.94 40.0704 5.42 40.3104 6.02C40.5504 6.62 40.7304 7.28 40.8804 7.97C41.0004 8.66 41.0904 9.35 41.1504 10.01C41.2104 10.7 41.2404 11.27 41.2404 11.75ZM58.4904 12.92V10.94C58.4904 10.46 58.4304 9.86 58.3104 9.2C58.1904 8.54 58.0404 7.85 57.8604 7.16C57.6504 6.47 57.4104 5.81 57.1404 5.21C56.8404 4.61 56.5404 4.1 56.2104 3.71C55.9104 3.41 55.6104 3.14 55.3404 2.96C55.0404 2.78 54.7704 2.63 54.4704 2.51C54.1704 2.42 53.8404 2.33 53.5104 2.27C53.1804 2.21 52.8204 2.12 52.4004 2.03C52.2504 2 52.0704 1.97 51.8604 1.91L51.2004 1.76C50.9604 1.7 50.7504 1.67 50.5704 1.61C50.3604 1.58 50.2104 1.55 50.0904 1.55C49.3704 1.55 48.7704 1.73 48.2304 2.06C47.6904 2.42 47.2404 2.87 46.8804 3.41C46.4904 3.95 46.1904 4.58 45.9504 5.27C45.7104 5.99 45.5004 6.68 45.3504 7.4C45.2004 8.12 45.1104 8.84 45.0504 9.5C44.9904 10.19 44.9604 10.79 44.9604 11.3C44.9604 11.9 44.9904 12.56 45.0504 13.22C45.1104 13.88 45.2304 14.54 45.4104 15.2C45.5904 15.86 45.8304 16.49 46.1304 17.09C46.4304 17.69 46.7904 18.17 47.2704 18.59C47.6604 18.95 48.0804 19.22 48.5304 19.37C48.9804 19.55 49.4604 19.7 50.0004 19.82C50.2704 19.91 50.6004 20 50.9904 20.06C51.3504 20.15 51.6804 20.18 51.9804 20.18H53.6304C53.8104 20.18 54.0804 20.15 54.4104 20.03C54.7104 19.91 54.9804 19.82 55.1604 19.7C55.7004 19.46 56.2104 19.1 56.6304 18.56C57.0504 18.05 57.3804 17.48 57.6504 16.82C57.9204 16.19 58.1304 15.53 58.2804 14.84C58.4004 14.15 58.4904 13.52 58.4904 12.92ZM56.2404 11.75C56.2404 12.23 56.2104 12.68 56.1804 13.1C56.1504 13.55 56.0904 14 56.0304 14.45C55.9704 14.84 55.8504 15.26 55.6704 15.74C55.4904 16.22 55.2504 16.64 54.9804 17.03C54.6804 17.45 54.3504 17.78 53.9904 18.05C53.6004 18.32 53.1804 18.44 52.7304 18.44H51.4704C50.6604 18.44 50.0004 18.17 49.5204 17.63C49.0104 17.09 48.6204 16.4 48.3504 15.62C48.0504 14.84 47.8704 14.03 47.7804 13.19C47.6604 12.35 47.6304 11.6 47.6304 11C47.6304 10.31 47.6604 9.53 47.7504 8.69C47.8404 7.85 48.0204 7.07 48.3204 6.35C48.5904 5.63 49.0104 5 49.5504 4.49C50.0904 4.01 50.8404 3.74 51.7704 3.74C52.2204 3.74 52.7004 3.8 53.1804 3.92C53.6604 4.04 54.0804 4.25 54.4404 4.58C54.8004 4.94 55.0704 5.42 55.3104 6.02C55.5504 6.62 55.7304 7.28 55.8804 7.97C56.0004 8.66 56.0904 9.35 56.1504 10.01C56.2104 10.7 56.2404 11.27 56.2404 11.75ZM66.7704 18.14C66.7704 17.75 66.5304 17.33 66.0504 16.91C65.5704 16.49 65.0604 16.04 64.4904 15.59C63.9204 15.17 63.4104 14.72 62.9304 14.27C62.4504 13.85 62.2404 13.43 62.2404 13.01C62.2404 12.56 62.3604 12.14 62.6604 11.72C62.9304 11.3 63.4104 11.09 64.1304 11.09C64.2504 11.09 64.3704 11.15 64.4904 11.21C64.6104 11.27 64.7004 11.36 64.8204 11.45C64.9104 11.54 65.0004 11.63 65.0904 11.69C65.1504 11.75 65.2404 11.78 65.3304 11.78C65.6004 11.78 65.8404 11.72 66.0204 11.54C66.2004 11.36 66.3204 11.18 66.4404 10.94C66.5604 10.73 66.6204 10.52 66.6804 10.28C66.7404 10.04 66.7704 9.86 66.7704 9.74C66.7704 9.35 66.5904 9.08 66.2604 8.93C65.9004 8.81 65.5704 8.72 65.2404 8.72C64.8804 8.72 64.3704 8.78 63.7404 8.9C63.0804 9.02 62.4504 9.23 61.8504 9.5C61.2504 9.8 60.7104 10.16 60.2604 10.64C59.8104 11.12 59.6004 11.72 59.6004 12.41C59.6004 12.92 59.6904 13.37 59.9304 13.79C60.1704 14.21 60.4404 14.6 60.8004 14.96C61.1604 15.32 61.5204 15.62 61.9404 15.92C62.3304 16.22 62.6904 16.52 63.0504 16.79C63.4104 17.09 63.6804 17.36 63.9204 17.6C64.1604 17.87 64.2804 18.14 64.2804 18.41C64.2804 18.71 64.1304 18.89 63.8604 19.01C63.5904 19.13 63.3804 19.16 63.2304 19.16C62.8704 19.16 62.5404 19.1 62.2704 18.92C61.9704 18.77 61.7304 18.59 61.4904 18.41C61.2504 18.23 61.0404 18.08 60.8304 17.9C60.6204 17.75 60.4104 17.66 60.2004 17.66C60.0204 17.66 59.8704 17.72 59.6904 17.81C59.5104 17.9 59.4504 18.05 59.4504 18.26C59.4504 18.62 59.5704 18.92 59.8404 19.16C60.1104 19.4 60.4404 19.61 60.8304 19.73C61.2204 19.85 61.6104 19.94 62.0304 20C62.4504 20.06 62.7804 20.09 63.0804 20.09C63.2604 20.09 63.5304 20.09 63.9504 20.06C64.3704 20.03 64.7604 19.94 65.1804 19.82C65.6004 19.7 65.9604 19.52 66.2904 19.25C66.5904 19.01 66.7704 18.62 66.7704 18.14ZM67.4166 14.57V14.84C67.4166 15.71 67.4766 16.52 67.6266 17.27C67.7466 18.02 67.9566 18.68 68.2266 19.22C68.4966 19.76 68.8266 20.21 69.2466 20.51C69.6366 20.81 70.1166 20.96 70.6566 20.96C71.1966 20.96 71.7066 20.75 72.1266 20.27C72.5466 19.82 72.8766 19.28 73.1766 18.68C73.4766 18.08 73.6866 17.45 73.8666 16.82C74.0466 16.19 74.1666 15.68 74.2266 15.32C74.2266 15.26 74.2566 15.14 74.2566 14.93C74.2566 14.63 74.1966 14.42 74.0766 14.33C73.9566 14.24 73.8366 14.18 73.7166 14.18C73.5366 14.18 73.4166 14.27 73.3566 14.39C73.2666 14.51 73.2066 14.72 73.1466 15.02C73.0266 15.53 72.9066 16.01 72.7866 16.49C72.6366 16.97 72.4866 17.42 72.3066 17.78C72.1266 18.17 71.9166 18.47 71.7066 18.68C71.4666 18.92 71.2266 19.01 70.9866 19.01C70.8066 19.01 70.6266 18.92 70.5066 18.74C70.3866 18.56 70.2666 18.35 70.2066 18.05C70.1166 17.75 70.0566 17.42 70.0266 17.06C69.9666 16.7 69.9666 16.34 69.9666 15.95C69.9666 14.96 69.9666 14 69.9966 13.1C69.9966 12.2 70.0266 11.39 70.0566 10.67C70.0866 9.98 70.1166 9.41 70.1466 8.99C70.1766 8.57 70.2066 8.33 70.2366 8.27C70.2666 8.21 70.4466 8.15 70.7766 8.09C71.1066 8.03 71.4666 8 71.8866 7.94C72.2766 7.91 72.6666 7.88 73.0266 7.85C73.3866 7.85 73.5966 7.82 73.6866 7.82C73.9866 7.82 74.1666 7.85 74.2266 7.91C74.2866 7.97 74.3466 8 74.4066 8C74.4666 8 74.4966 7.97 74.5566 7.88C74.5866 7.79 74.6166 7.73 74.6166 7.67C74.6166 7.43 74.4966 7.22 74.2866 7.1C74.0766 6.98 73.8066 6.86 73.4766 6.8C73.1466 6.74 72.7866 6.71 72.4266 6.71C72.0666 6.71 71.7066 6.71 71.3766 6.71C71.0466 6.71 70.7766 6.68 70.5666 6.62C70.3566 6.56 70.2666 6.47 70.2666 6.35L70.5966 2.45C70.5966 2.33 70.4766 2.24 70.2666 2.12C70.0566 2.03 69.8166 1.94 69.5466 1.88C69.2466 1.82 68.9766 1.76 68.7366 1.7C68.4666 1.67 68.2866 1.64 68.1966 1.64C68.1066 1.64 68.0466 1.76 67.9866 2C67.9266 2.24 67.8966 2.57 67.8966 2.93C67.8666 3.29 67.8366 3.68 67.8366 4.1C67.8366 4.52 67.8066 4.94 67.8066 5.3C67.8066 5.66 67.7766 5.96 67.7466 6.2C67.7166 6.44 67.6566 6.56 67.5966 6.56C66.5766 6.56 65.7966 6.59 65.2866 6.62C64.7466 6.68 64.5066 6.83 64.5066 7.07C64.5066 7.37 64.6566 7.61 64.9866 7.73C65.2866 7.85 65.6466 7.94 66.0666 8C66.4566 8.06 66.8166 8.12 67.1466 8.18C67.4466 8.24 67.6266 8.36 67.6266 8.51C67.5666 9.41 67.5366 10.4 67.5066 11.45C67.4466 12.53 67.4166 13.55 67.4166 14.57ZM85.2192 16.73C85.2192 16.64 85.2492 16.55 85.2492 16.49V16.25C85.2492 15.98 85.1892 15.8 85.0992 15.68C85.0092 15.56 84.9192 15.5 84.8292 15.5C84.6492 15.5 84.5592 15.62 84.5292 15.86C84.4992 16.04 84.4392 16.28 84.3492 16.58C84.2592 16.91 84.1392 17.24 84.0192 17.54C83.8992 17.84 83.7192 18.11 83.5392 18.35C83.3592 18.59 83.1492 18.71 82.9092 18.71C82.6692 18.71 82.4892 18.62 82.3692 18.44C82.2192 18.26 82.0992 18.02 82.0392 17.72C81.9792 17.42 81.9192 17.12 81.8892 16.79C81.8592 16.46 81.8592 16.16 81.8592 15.86C81.8592 15.32 81.8592 14.84 81.9192 14.42C81.9492 14.03 82.0692 13.58 82.2792 13.04V12.92C82.2792 12.8 82.2192 12.68 82.1292 12.59C82.0392 12.5 81.9492 12.44 81.8292 12.38C81.7092 12.32 81.5892 12.29 81.4992 12.23C81.4092 12.2 81.3792 12.17 81.3792 12.14C81.3192 11.75 81.2892 11.36 81.3192 10.94C81.3192 10.52 81.3192 10.13 81.2592 9.74C81.1992 9.38 81.1092 9.02 80.9292 8.69C80.7492 8.36 80.4792 8.06 80.0592 7.82C79.6692 7.76 79.3692 7.7 79.1592 7.58C78.9492 7.49 78.7692 7.4 78.5892 7.31C78.4092 7.22 78.1992 7.13 77.9892 7.07C77.7792 7.01 77.4792 6.95 77.0892 6.95C76.3992 6.95 75.8292 7.22 75.3492 7.7C74.8692 8.18 74.4792 8.84 74.1792 9.68C73.8792 10.52 73.6392 11.45 73.5192 12.53C73.3992 13.61 73.3392 14.75 73.3392 15.95C73.3392 16.46 73.3692 17 73.4592 17.57C73.5492 18.14 73.6992 18.65 73.9092 19.13C74.0892 19.61 74.3592 20.03 74.6892 20.33C75.0192 20.63 75.4392 20.78 75.9192 20.78C76.0692 20.78 76.1892 20.81 76.2792 20.81C76.3692 20.84 76.4592 20.87 76.5192 20.9C76.5792 20.93 76.6692 20.96 76.7292 20.96C76.7892 20.99 76.8792 20.99 76.9992 20.99C77.4192 20.99 77.7792 20.87 78.0792 20.63C78.3792 20.39 78.6792 20.06 78.9192 19.7C79.1592 19.34 79.3392 18.95 79.5192 18.53C79.6692 18.11 79.8192 17.75 79.9392 17.42C80.0292 18.26 80.2992 18.92 80.7492 19.37C81.1992 19.85 81.7392 20.06 82.3392 20.06C82.7292 20.06 83.0892 19.94 83.4192 19.7C83.7492 19.46 84.0492 19.19 84.2892 18.83C84.5292 18.47 84.7392 18.11 84.9192 17.72C85.0692 17.36 85.1592 17.03 85.2192 16.73ZM79.6692 11.87V12.14C79.6692 12.2 79.5792 12.26 79.4592 12.35C79.3092 12.44 79.2192 12.65 79.1892 12.98C79.1292 13.64 79.0392 14.33 78.9792 15.11C78.9192 15.89 78.7992 16.61 78.6492 17.27C78.4692 17.93 78.2292 18.5 77.9292 18.95C77.6292 19.4 77.1792 19.61 76.6092 19.61C76.3692 19.61 76.1592 19.49 76.0092 19.19C75.8592 18.92 75.7392 18.59 75.6792 18.17C75.5892 17.78 75.5292 17.36 75.4992 16.91C75.4692 16.46 75.4692 16.07 75.4692 15.74C75.4692 15.32 75.4992 14.75 75.5592 14.03C75.6192 13.31 75.7392 12.59 75.9492 11.9C76.1292 11.21 76.3992 10.61 76.7592 10.1C77.1192 9.59 77.5692 9.32 78.1392 9.32C78.4692 9.32 78.7392 9.41 78.9492 9.59C79.1292 9.77 79.2792 10.01 79.3992 10.25C79.4892 10.52 79.5492 10.79 79.6092 11.09C79.6392 11.39 79.6692 11.66 79.6692 11.87ZM94.2877 20.78C94.2877 20.57 94.1077 20.42 93.8077 20.3C93.5077 20.18 93.2677 20.12 93.0877 20.12C93.0577 20.12 93.0277 20.15 92.9977 20.15C92.9377 20.15 92.9077 20.15 92.8777 20.15H92.7577C92.7277 19.88 92.7277 19.52 92.7277 19.1V18.05C92.7277 17.72 92.7277 17.33 92.7277 16.91C92.7277 16.49 92.7577 16.07 92.7877 15.65C92.7877 15.23 92.8177 14.87 92.8777 14.51C92.9077 14.15 92.9677 13.91 93.0277 13.73C93.0277 13.7 93.0877 13.61 93.1777 13.46C93.2677 13.31 93.3277 13.22 93.3277 13.16C93.3277 13.01 93.2677 12.92 93.1477 12.86C93.0277 12.8 92.8777 12.77 92.7277 12.71C92.5777 12.68 92.4577 12.62 92.3377 12.56C92.2177 12.5 92.1577 12.41 92.1577 12.23C92.1577 11.84 92.1577 11.51 92.2177 11.24C92.2777 11 92.3077 10.7 92.3077 10.37C92.3077 9.92 92.2177 9.53 92.0977 9.23C91.9477 8.93 91.7677 8.66 91.5277 8.48C91.2877 8.3 90.9877 8.12 90.6577 8C90.2977 7.88 89.9377 7.79 89.5477 7.7C89.4577 7.7 89.3377 7.64 89.1877 7.58L88.7377 7.37C88.5877 7.31 88.4377 7.22 88.3177 7.16C88.1977 7.1 88.0777 7.07 88.0177 7.07C87.2977 7.07 86.6977 7.34 86.2177 7.88C85.7377 8.42 85.3777 9.08 85.1077 9.92C84.8077 10.76 84.6277 11.66 84.5077 12.65C84.3877 13.67 84.3577 14.63 84.3577 15.56C84.3577 16.34 84.3877 17.06 84.4777 17.69C84.5377 18.32 84.6877 18.86 84.8977 19.31C85.1077 19.79 85.4077 20.15 85.7677 20.39C86.1277 20.66 86.6077 20.81 87.1777 20.84C87.3877 20.84 87.5677 20.87 87.6877 20.93C87.8077 20.99 87.9277 21.02 88.1077 21.02C88.4077 21.02 88.6777 20.93 88.9177 20.72C89.1577 20.51 89.3677 20.27 89.5477 19.97C89.7277 19.7 89.9077 19.4 90.0577 19.1C90.1777 18.8 90.2977 18.53 90.4177 18.35C90.4177 18.8 90.3877 19.22 90.3877 19.64C90.3577 20.06 90.3277 20.48 90.2977 20.9V20.93C90.0577 21.11 89.8177 21.32 89.5177 21.56C89.2177 21.8 88.9777 22.04 88.7377 22.28C88.2577 22.76 87.8377 23.27 87.4477 23.87C87.0577 24.47 86.7277 25.07 86.4577 25.73C86.1577 26.39 85.9477 27.05 85.7977 27.74C85.6477 28.43 85.5877 29.09 85.5877 29.75C85.5877 30.41 85.7077 30.95 86.0077 31.34C86.3077 31.73 86.6677 32.03 87.1177 32.21C87.5677 32.42 88.0777 32.54 88.6177 32.6C89.1577 32.66 89.6977 32.66 90.2077 32.66C90.7777 32.66 91.2277 32.48 91.5577 32.12C91.8877 31.76 92.1577 31.25 92.3377 30.65C92.5177 30.05 92.6077 29.36 92.6677 28.58C92.7277 27.8 92.7577 27.02 92.7577 26.21V23.84C92.7577 23.03 92.7277 22.34 92.7277 21.8L92.7577 21.44C92.7577 21.32 92.7877 21.26 92.9077 21.26L93.5077 21.32C93.6577 21.32 93.8377 21.29 94.0177 21.2C94.1977 21.14 94.2877 20.99 94.2877 20.78ZM90.4477 11.51C90.4477 11.69 90.4177 11.9 90.3877 12.11C90.3577 12.35 90.2977 12.53 90.1777 12.68C90.1177 12.74 90.0877 12.89 90.0577 13.1C89.9977 13.31 89.9677 13.7 89.9677 14.27C89.9377 14.69 89.8777 15.2 89.7577 15.77C89.6377 16.34 89.4877 16.88 89.2777 17.42C89.0677 17.96 88.7977 18.38 88.4977 18.74C88.1677 19.1 87.8077 19.28 87.3877 19.28C87.1477 19.28 86.9377 19.16 86.7877 18.92C86.6377 18.68 86.5177 18.38 86.4577 18.02C86.3977 17.66 86.3377 17.27 86.3077 16.82C86.2777 16.37 86.2777 15.92 86.2777 15.5C86.2777 14.51 86.3377 13.61 86.4877 12.83C86.6377 12.05 86.8477 11.36 87.0877 10.82C87.3277 10.28 87.6277 9.83 87.9577 9.53C88.2877 9.23 88.6477 9.08 89.0377 9.08C89.3077 9.08 89.5477 9.17 89.7277 9.35C89.9077 9.53 90.0577 9.74 90.1777 9.98C90.2677 10.22 90.3277 10.49 90.3877 10.76C90.4177 11.06 90.4477 11.3 90.4477 11.51ZM90.3277 21.95V24.41C90.3277 25.01 90.2977 25.49 90.2977 25.82C90.2977 26.18 90.2977 26.39 90.2977 26.51V26.78C90.2977 27.08 90.2677 27.5 90.2077 27.98C90.1477 28.49 90.0577 28.97 89.9077 29.45C89.7577 29.93 89.5477 30.35 89.2777 30.71C89.0077 31.07 88.6777 31.22 88.2577 31.22C88.0177 31.22 87.8077 31.16 87.6277 31.01C87.4477 30.89 87.3277 30.71 87.2377 30.5C87.1477 30.29 87.0877 30.05 87.0577 29.81C86.9977 29.57 86.9977 29.36 86.9977 29.15C86.9977 28.61 87.0577 27.98 87.2377 27.26C87.4177 26.57 87.6577 25.88 87.9577 25.19C88.2577 24.53 88.5877 23.9 89.0077 23.3C89.4277 22.73 89.8477 22.28 90.3277 21.95ZM103.245 15.77C103.245 15.71 103.275 15.59 103.275 15.41C103.275 15.23 103.305 15.14 103.305 15.08C103.305 14.72 103.155 14.54 102.885 14.54C102.795 14.54 102.705 14.57 102.615 14.63C102.525 14.69 102.465 14.81 102.435 15.02C102.375 15.26 102.315 15.65 102.195 16.13C102.075 16.64 101.955 17.15 101.775 17.63C101.595 18.11 101.385 18.56 101.145 18.92C100.905 19.28 100.635 19.46 100.335 19.46C100.155 19.46 100.005 19.34 99.8845 19.07C99.7645 18.83 99.6745 18.53 99.6145 18.17C99.5545 17.84 99.4945 17.51 99.4945 17.18C99.4645 16.88 99.4645 16.64 99.4645 16.52C99.4645 15.02 99.6445 13.58 100.005 12.2C100.005 12.17 100.005 12.08 100.065 11.96C100.095 11.84 100.155 11.72 100.215 11.57C100.275 11.42 100.305 11.27 100.365 11.12C100.395 10.97 100.425 10.85 100.425 10.76C100.425 10.52 100.275 10.34 100.005 10.22C99.7345 10.1 99.4345 9.98 99.0745 9.92C98.7145 9.86 98.3545 9.83 97.9945 9.8C97.6345 9.8 97.3645 9.77 97.2145 9.74H97.1245C96.9445 9.71 96.8245 9.68 96.7645 9.65C96.7045 9.62 96.6745 9.53 96.6745 9.38V9.2L96.7045 8.54V8.39C96.7045 7.97 96.5245 7.73 96.1945 7.73C96.0445 7.73 95.8945 7.76 95.7145 7.79C95.5345 7.85 95.3545 7.91 95.2045 7.97C95.0245 8.06 94.9045 8.15 94.8145 8.24C94.6945 8.36 94.6645 8.45 94.6645 8.57L94.7545 10.34C94.7845 10.64 94.8145 10.88 94.8145 11.12V11.81V12.59C94.8145 12.8 94.7845 12.98 94.7845 13.1C94.7845 13.25 94.7845 13.37 94.7845 13.46V13.67C94.7545 14.03 94.7245 14.45 94.6945 14.9C94.6345 15.38 94.5445 15.95 94.3945 16.64C94.3345 16.82 94.3345 16.94 94.3345 17C94.3345 17.18 94.3645 17.27 94.4245 17.3C94.4845 17.36 94.5745 17.36 94.6645 17.36H94.6945C94.8745 17.36 95.0545 17.24 95.2045 16.97C95.3545 16.7 95.4745 16.34 95.5945 15.89C95.7145 15.44 95.8045 14.93 95.8945 14.33C95.9845 13.73 96.0745 13.13 96.1645 12.47L96.2845 11.51C96.2845 11.45 96.3445 11.36 96.4045 11.3C96.4645 11.24 96.6145 11.21 96.8545 11.21C96.9745 11.21 97.1245 11.24 97.3045 11.27C97.4545 11.33 97.5445 11.42 97.5445 11.57C97.5145 12.11 97.4845 12.62 97.4245 13.16C97.3645 13.7 97.3345 14.21 97.3345 14.72C97.3345 15.2 97.3645 15.77 97.4245 16.46C97.4845 17.15 97.6045 17.81 97.8145 18.44C97.9945 19.07 98.2945 19.61 98.6845 20.06C99.0445 20.51 99.5545 20.72 100.215 20.72C100.815 20.72 101.295 20.51 101.685 20.03C102.075 19.58 102.375 19.07 102.615 18.47C102.855 17.87 103.005 17.33 103.095 16.79C103.185 16.25 103.245 15.92 103.245 15.77ZM114.252 16.73C114.252 16.64 114.282 16.55 114.282 16.49V16.25C114.282 15.98 114.222 15.8 114.132 15.68C114.042 15.56 113.952 15.5 113.862 15.5C113.682 15.5 113.592 15.62 113.562 15.86C113.532 16.04 113.472 16.28 113.382 16.58C113.292 16.91 113.172 17.24 113.052 17.54C112.932 17.84 112.752 18.11 112.572 18.35C112.392 18.59 112.182 18.71 111.942 18.71C111.702 18.71 111.522 18.62 111.402 18.44C111.252 18.26 111.132 18.02 111.072 17.72C111.012 17.42 110.952 17.12 110.922 16.79C110.892 16.46 110.892 16.16 110.892 15.86C110.892 15.32 110.892 14.84 110.952 14.42C110.982 14.03 111.102 13.58 111.312 13.04V12.92C111.312 12.8 111.252 12.68 111.162 12.59C111.072 12.5 110.982 12.44 110.862 12.38C110.742 12.32 110.622 12.29 110.532 12.23C110.442 12.2 110.412 12.17 110.412 12.14C110.352 11.75 110.322 11.36 110.352 10.94C110.352 10.52 110.352 10.13 110.292 9.74C110.232 9.38 110.142 9.02 109.962 8.69C109.782 8.36 109.512 8.06 109.092 7.82C108.702 7.76 108.402 7.7 108.192 7.58C107.982 7.49 107.802 7.4 107.622 7.31C107.442 7.22 107.232 7.13 107.022 7.07C106.812 7.01 106.512 6.95 106.122 6.95C105.432 6.95 104.862 7.22 104.382 7.7C103.902 8.18 103.512 8.84 103.212 9.68C102.912 10.52 102.672 11.45 102.552 12.53C102.432 13.61 102.372 14.75 102.372 15.95C102.372 16.46 102.402 17 102.492 17.57C102.582 18.14 102.732 18.65 102.942 19.13C103.122 19.61 103.392 20.03 103.722 20.33C104.052 20.63 104.472 20.78 104.952 20.78C105.102 20.78 105.222 20.81 105.312 20.81C105.402 20.84 105.492 20.87 105.552 20.9C105.612 20.93 105.702 20.96 105.762 20.96C105.822 20.99 105.912 20.99 106.032 20.99C106.452 20.99 106.812 20.87 107.112 20.63C107.412 20.39 107.712 20.06 107.952 19.7C108.192 19.34 108.372 18.95 108.552 18.53C108.702 18.11 108.852 17.75 108.972 17.42C109.062 18.26 109.332 18.92 109.782 19.37C110.232 19.85 110.772 20.06 111.372 20.06C111.762 20.06 112.122 19.94 112.452 19.7C112.782 19.46 113.082 19.19 113.322 18.83C113.562 18.47 113.772 18.11 113.952 17.72C114.102 17.36 114.192 17.03 114.252 16.73ZM108.702 11.87V12.14C108.702 12.2 108.612 12.26 108.492 12.35C108.342 12.44 108.252 12.65 108.222 12.98C108.162 13.64 108.072 14.33 108.012 15.11C107.952 15.89 107.832 16.61 107.682 17.27C107.502 17.93 107.262 18.5 106.962 18.95C106.662 19.4 106.212 19.61 105.642 19.61C105.402 19.61 105.192 19.49 105.042 19.19C104.892 18.92 104.772 18.59 104.712 18.17C104.622 17.78 104.562 17.36 104.532 16.91C104.502 16.46 104.502 16.07 104.502 15.74C104.502 15.32 104.532 14.75 104.592 14.03C104.652 13.31 104.772 12.59 104.982 11.9C105.162 11.21 105.432 10.61 105.792 10.1C106.152 9.59 106.602 9.32 107.172 9.32C107.502 9.32 107.772 9.41 107.982 9.59C108.162 9.77 108.312 10.01 108.432 10.25C108.522 10.52 108.582 10.79 108.642 11.09C108.672 11.39 108.702 11.66 108.702 11.87ZM123.441 12.62L123.261 15.08V15.29C123.261 16.01 123.291 16.67 123.381 17.3C123.471 17.96 123.621 18.53 123.861 19.01C124.071 19.49 124.371 19.88 124.791 20.18C125.181 20.48 125.691 20.6 126.321 20.6C126.831 20.6 127.281 20.42 127.701 20C128.091 19.58 128.421 19.1 128.691 18.56C128.961 18.02 129.171 17.45 129.321 16.91C129.471 16.37 129.561 15.95 129.591 15.68C129.591 15.62 129.621 15.53 129.621 15.35C129.621 15.08 129.591 14.9 129.531 14.81C129.471 14.75 129.381 14.69 129.231 14.69C128.961 14.69 128.781 14.93 128.691 15.41C128.601 15.89 128.511 16.34 128.391 16.76C128.271 17.18 128.121 17.57 127.971 17.87C127.791 18.2 127.611 18.47 127.401 18.65C127.161 18.83 126.921 18.92 126.651 18.92C126.441 18.92 126.291 18.83 126.171 18.65C126.051 18.47 125.931 18.26 125.871 17.96C125.811 17.66 125.751 17.33 125.721 16.97C125.691 16.61 125.691 16.25 125.691 15.89C125.691 15.05 125.691 14.36 125.751 13.82C125.811 13.28 125.901 12.74 126.051 12.17C126.081 11.99 126.171 11.78 126.291 11.6C126.411 11.42 126.471 11.3 126.471 11.24C126.471 11.03 126.381 10.82 126.201 10.61C126.021 10.43 125.841 10.25 125.601 10.07C125.361 9.92 125.151 9.8 124.911 9.71C124.671 9.62 124.461 9.56 124.341 9.56C124.161 9.56 123.951 9.59 123.711 9.59C123.471 9.59 123.351 9.65 123.321 9.71C123.081 10.19 122.811 10.79 122.511 11.57C122.211 12.35 121.911 13.13 121.671 13.85C121.401 14.6 121.161 15.23 120.981 15.77C120.801 16.31 120.681 16.58 120.651 16.58C120.591 16.58 120.591 16.52 120.591 16.4V16.13V11.27C120.561 11.15 120.501 11.06 120.381 10.97C120.261 10.88 120.141 10.79 120.021 10.73C119.871 10.67 119.721 10.64 119.571 10.61C119.421 10.58 119.301 10.55 119.211 10.55C119.061 10.55 118.881 10.58 118.671 10.61C118.431 10.64 118.281 10.67 118.221 10.73C117.981 10.94 117.771 11.27 117.591 11.69C117.381 12.14 117.201 12.62 117.021 13.13C116.841 13.67 116.691 14.18 116.571 14.72C116.451 15.26 116.331 15.71 116.241 16.1V8.87C116.181 8.84 116.061 8.81 115.911 8.75C115.731 8.69 115.551 8.66 115.371 8.6C115.191 8.57 114.981 8.54 114.801 8.51C114.621 8.48 114.441 8.45 114.321 8.45C114.261 8.45 114.141 8.48 114.021 8.51C113.901 8.54 113.841 8.63 113.841 8.78C113.841 8.84 113.841 8.99 113.871 9.29C113.871 9.59 113.901 9.8 113.901 9.98C113.841 11.3 113.811 12.47 113.781 13.43C113.751 14.42 113.751 15.29 113.751 16.01C113.751 17.27 113.751 18.2 113.811 18.8C113.871 19.4 113.931 19.85 114.051 20.09C114.081 20.21 114.171 20.3 114.351 20.36C114.501 20.42 114.681 20.48 114.861 20.51C115.041 20.57 115.251 20.6 115.431 20.63C115.611 20.66 115.761 20.66 115.851 20.66C116.121 20.66 116.361 20.66 116.601 20.6C116.841 20.57 116.961 20.45 116.961 20.21C116.961 19.61 116.991 18.95 117.111 18.17C117.201 17.42 117.321 16.7 117.441 16.01C117.561 15.32 117.711 14.72 117.861 14.24C118.011 13.76 118.131 13.52 118.251 13.46C118.311 13.52 118.341 13.61 118.341 13.76C118.341 13.94 118.371 14.09 118.371 14.24V16.49C118.371 17.12 118.371 17.66 118.401 18.08C118.431 18.53 118.521 18.89 118.641 19.16C118.761 19.43 118.971 19.61 119.241 19.73C119.481 19.85 119.841 19.91 120.291 19.91C120.561 19.91 120.801 19.88 120.981 19.79C121.161 19.73 121.251 19.64 121.251 19.52C121.251 19.28 121.281 18.98 121.371 18.59C121.431 18.23 121.521 17.84 121.641 17.45C121.761 17.06 121.851 16.7 121.941 16.37C122.031 16.07 122.091 15.86 122.121 15.74C122.241 15.41 122.421 14.93 122.661 14.33C122.901 13.73 123.141 13.16 123.441 12.62Z" fill="black"/>
</svg>
