<svg width="28" height="28" viewBox="0 0 28 28" fill="none" xmlns="http://www.w3.org/2000/svg">
<path d="M18.75 16C18.5511 16 18.3603 16.079 18.2197 16.2197C18.079 16.3603 18 16.5511 18 16.75C18 16.9489 18.079 17.1397 18.2197 17.2803C18.3603 17.421 18.5511 17.5 18.75 17.5H21.25C21.4489 17.5 21.6397 17.421 21.7803 17.2803C21.921 17.1397 22 16.9489 22 16.75C22 16.5511 21.921 16.3603 21.7803 16.2197C21.6397 16.079 21.4489 16 21.25 16H18.75ZM3 5.75C3 5.02065 3.28973 4.32118 3.80546 3.80546C4.32118 3.28973 5.02066 3 5.75 3H19.25C19.9793 3 20.6788 3.28973 21.1945 3.80546C21.7103 4.32118 22 5.02065 22 5.75V7.008C22.9492 7.07142 23.8389 7.49325 24.4887 8.18804C25.1386 8.88284 25.5001 9.79866 25.5 10.75V21.25C25.5 22.2446 25.1049 23.1984 24.4017 23.9017C23.6984 24.6049 22.7446 25 21.75 25H6.754C5.75944 25 4.80561 24.6049 4.10235 23.9017C3.39909 23.1984 3.004 22.2446 3.004 21.25V10.75H3V6H3.011C3.00359 5.91687 2.99992 5.83346 3 5.75ZM21.75 8.5H4.504V21.25C4.504 21.8467 4.74105 22.419 5.16301 22.841C5.58497 23.2629 6.15726 23.5 6.754 23.5H21.75C22.3467 23.5 22.919 23.2629 23.341 22.841C23.7629 22.419 24 21.8467 24 21.25V10.75C24 10.1533 23.7629 9.58097 23.341 9.15901C22.919 8.73705 22.3467 8.5 21.75 8.5ZM20.5 5.75C20.5 5.06 19.94 4.5 19.25 4.5H5.75C5.41848 4.5 5.10054 4.6317 4.86612 4.86612C4.6317 5.10054 4.5 5.41848 4.5 5.75C4.5 6.08152 4.6317 6.39946 4.86612 6.63388C5.10054 6.8683 5.41848 7 5.75 7H20.5V5.75Z" fill="#4f4f4f"/>
</svg>
